# xmcd
#
# Track frame offsets:
#  150
#  10820
#  42248
#  84561
#  109118
#  146924
#  185967
#  210927
#  245047
#  283025
#  316655
#
# Disc length: 4677 seconds
#
# Revision: 0
# Processed by: cddbd v1.5.2PL0 Copyright (c) Steve Scherf et al.
# Submitted via: AltoMP3_Maker 3.0
#
DISCID=9c12430b
DTITLE=Eddie Cotton - Live Back at the Alamo Theatre
DYEAR=1900
DGENRE=
TTITLE0=I Need Your Love
TTITLE1=Straighten It Out
TTITLE2=Funky Good Time
TTITLE3=How Can You Mend A Broken Heart?
TTITLE4=Love War
TTITLE5=All Night Long
TTITLE6=I'm Gonna Leave You
TTITLE7=Here To Testify
TTITLE8=I'll Play The Blues For You
TTITLE9=Match Box Blues
TTITLE10=unknown
EXTD=
EXTT0=
EXTT1=
EXTT2=
EXTT3=
EXTT4=
EXTT5=
EXTT6=
EXTT7=
EXTT8=
EXTT9=
EXTT10=
PLAYORDER=
